# xmcd
#
# Track frame offsets: 
#        150
#        20945
#        40504
#        44388
#        58785
#        77201
#        96056
#
# Disc length: 1503 seconds
#
# Revision: 4
# Processed by: cddbd v1.5.2PL0 Copyright (c) Steve Scherf et al.
# Submitted via: ExactAudioCopy v1.1
#
DISCID=5505dd07
DTITLE=Muskee - Cut De Luxe
DYEAR=1991
DGENRE=Blues
TTITLE0=Brother Booze
TTITLE1=Help Me
TTITLE2=Blue Interlude
TTITLE3=Sleepin' Dog
TTITLE4=Broken Wings
TTITLE5=Hit Rough
TTITLE6=Tough On Me
EXTD=
EXTT0=
EXTT1=
EXTT2=
EXTT3=
EXTT4=
EXTT5=
EXTT6=
PLAYORDER=
